<svg version="1.1" id="Layer_1" xmlns="http://www.w3.org/2000/svg" xmlns:xlink="http://www.w3.org/1999/xlink" x="0px" y="0px"
	 width="100%" viewBox="0 0 193 187" enable-background="new 0 0 193 187" xml:space="preserve">
<path fill="#FEFDF9" opacity="1.000000" stroke="none" 
	d="
M1.000000,85.000000 
	C1.000000,56.666672 1.000000,28.833347 1.000000,1.000015 
	C65.333313,1.000010 129.666626,1.000010 193.999954,1.000005 
	C193.999969,63.333298 193.999969,125.666595 193.999985,187.999908 
	C129.666718,187.999939 65.333435,187.999939 1.000078,187.999969 
	C1.000000,153.833328 1.000000,119.666664 1.000000,85.000000 
M26.898060,167.712372 
	C27.203054,167.894379 27.508047,168.076370 27.854422,168.148483 
	C27.854422,168.148483 27.745800,168.193054 27.911564,168.718658 
	C28.228771,168.883270 28.545979,169.047882 28.886639,169.116684 
	C28.886639,169.116684 28.791649,169.143204 28.947451,169.676300 
	C29.262260,169.844772 29.577070,170.013260 29.937273,170.057541 
	C29.937273,170.057541 29.838327,170.145279 30.082390,170.713089 
	C30.921682,171.269684 31.760975,171.826279 32.592083,172.157761 
	C32.592083,172.157761 32.642944,172.377167 32.857861,172.868958 
	C33.180157,173.000717 33.502453,173.132492 33.861916,173.152252 
	C33.861916,173.152252 33.755096,173.202438 33.966686,173.712067 
	C34.303123,173.828598 34.639561,173.945114 34.992283,173.999176 
	C34.992283,173.999176 34.942619,174.040390 35.221596,174.613693 
	C36.142124,175.087540 37.062653,175.561386 37.994934,175.995728 
	C37.994934,175.995728 37.963406,176.022964 38.271854,176.549850 
	C38.833420,176.739914 39.394985,176.929962 39.965176,177.030045 
	C39.965176,177.030045 39.895515,177.087646 40.254951,177.656601 
	C41.486496,178.146286 42.718040,178.635971 43.966221,179.031357 
	C43.966221,179.031357 43.892715,179.092758 44.224411,179.616486 
	C44.806770,179.774063 45.389130,179.931641 45.983910,180.011276 
	C45.983910,180.011276 45.921989,180.060211 46.355110,180.637680 
	C51.917072,181.961273 57.479031,183.284851 63.675545,184.820419 
	C64.118729,184.802032 64.561913,184.783661 65.917244,184.997650 
	C87.746948,185.010620 109.586433,185.393494 131.400543,184.816650 
	C138.159119,184.637924 144.848740,181.851440 151.817291,180.307343 
	C151.817291,180.307343 151.974350,180.110138 152.610809,180.133255 
	C153.116013,179.793961 153.621231,179.454681 154.043869,179.046265 
	C154.043869,179.046265 154.068985,179.150986 154.774170,179.144730 
	C156.551773,178.131912 158.329376,177.119080 159.990509,176.022842 
	C159.990509,176.022842 160.095505,176.121628 160.723099,176.055252 
	C161.510345,175.391830 162.297607,174.728409 163.009338,174.008041 
	C163.009338,174.008041 163.056000,174.090317 163.680588,174.016510 
	C164.432114,173.329803 165.183624,172.643082 165.990707,171.999496 
	C165.990707,171.999496 165.968597,171.932724 166.501053,171.868164 
	C166.701630,171.588196 166.902206,171.308228 167.634659,170.878006 
	C168.132767,170.355316 168.630875,169.832626 169.715897,169.094727 
	C169.859894,168.736053 170.003876,168.377380 170.443726,167.570663 
	C170.966171,167.088654 171.488617,166.606644 172.616806,166.140884 
	C172.811417,165.803894 173.006042,165.466919 173.102829,165.105972 
	C173.102829,165.105972 173.137299,165.200607 173.663544,165.039062 
	C173.836502,164.729706 174.009460,164.420364 174.058563,164.059723 
	C174.058563,164.059723 174.144424,164.162674 174.702393,163.956360 
	C174.963791,163.439423 175.225189,162.922501 175.428116,162.031631 
	C175.428116,162.031631 175.462723,162.405655 175.932007,162.225601 
	C176.081894,161.935715 176.231781,161.645813 176.067108,160.978729 
	C176.067108,160.978729 176.372177,161.360153 176.863983,161.157364 
	C177.006897,160.843246 177.149826,160.529144 177.153137,160.137558 
	C177.153137,160.137558 177.238235,160.272644 177.754562,160.064850 
	C177.874527,159.727966 177.994507,159.391068 178.019043,159.029465 
	C178.019043,159.029465 178.085785,159.102036 178.635406,158.785416 
	C179.092682,157.858292 179.549957,156.931168 180.000000,156.000000 
	C180.000000,156.000000 180.005157,156.007217 180.544846,155.722595 
	C180.741425,155.165619 180.938019,154.608627 181.041092,154.040146 
	C181.041092,154.040146 181.098312,154.115005 181.681152,153.756973 
	C182.495926,151.866562 183.310699,149.976151 184.026855,148.001007 
	C184.026855,148.001007 184.099152,148.109024 184.668015,147.662994 
	C185.489456,145.140656 186.824173,142.661774 187.041977,140.088348 
	C187.907288,129.864349 188.835617,119.616455 188.975555,109.366966 
	C189.200012,92.927452 188.816971,76.479652 188.774750,59.350857 
	C188.649124,58.914066 188.523514,58.477276 188.610046,57.291882 
	C187.163330,52.339451 185.716614,47.387024 184.315887,42.178898 
	C184.315887,42.178898 184.112854,42.016785 184.135895,41.382080 
	C183.797729,40.877407 183.459579,40.372730 183.050232,39.953201 
	C183.050232,39.953201 183.157700,39.925430 183.145309,39.201382 
	C181.452805,36.438816 179.760315,33.676247 178.009079,30.980875 
	C178.009079,30.980875 178.094360,30.954580 178.053040,30.401924 
	C177.778351,30.178358 177.503677,29.954790 177.152969,29.865963 
	C177.152969,29.865963 177.286224,29.787371 177.193512,29.262640 
	C176.922241,29.052418 176.650986,28.842196 176.270233,28.972803 
	C176.270233,28.972803 176.421127,28.648163 176.285309,28.083635 
	C175.866394,27.706940 175.447495,27.330244 174.997299,26.996084 
	C174.997299,26.996084 175.048050,26.981632 174.966629,26.436045 
	C174.676331,26.238813 174.386032,26.041582 174.068924,25.934275 
	C174.068924,25.934275 174.158661,25.906816 174.035446,25.370985 
	C173.739151,25.177006 173.442841,24.983027 173.115128,24.886410 
	C173.115128,24.886410 173.213470,24.858221 173.091812,24.319643 
	C172.795349,24.124622 172.498901,23.929602 172.146179,23.856359 
	C172.146179,23.856359 172.265076,23.794252 172.106094,23.268061 
	C171.795380,23.095860 171.484680,22.923656 171.139450,22.857809 
	C171.139450,22.857809 171.248413,22.832724 171.087326,22.269842 
	C170.776093,22.050379 170.464859,21.830914 170.002548,21.240553 
	C169.825073,21.016479 169.593597,20.897200 169.086594,20.346342 
	C168.750397,20.179920 168.414200,20.013500 168.063568,19.935118 
	C168.063568,19.935118 168.148392,19.907467 167.985458,19.383610 
	C167.662888,19.239779 167.340302,19.095945 167.002975,19.002249 
	C167.002975,19.002249 167.045395,18.971659 166.823837,18.430149 
	C166.328842,18.147182 165.833847,17.864218 165.009521,17.811108 
	C165.009521,17.811108 165.359894,17.614849 165.148438,17.126911 
	C164.831650,16.990711 164.514877,16.854511 164.139023,16.847120 
	C164.139023,16.847120 164.260788,16.774632 164.049164,16.263840 
	C163.714142,16.144144 163.379135,16.024446 163.019653,15.989875 
	C163.019653,15.989875 163.086639,15.931934 162.795044,15.404156 
	C162.248993,15.176493 161.702942,14.948830 161.105652,14.856329 
	C161.105652,14.856329 161.220779,14.768930 160.895111,14.168692 
	C158.620407,13.060270 156.345688,11.951848 154.047470,10.948857 
	C154.047470,10.948857 154.130463,10.879711 153.774734,10.357259 
	C153.177124,10.201399 152.579498,10.045538 151.819733,9.683931 
	C151.819733,9.683931 151.561691,9.729051 151.034500,9.178214 
	C144.263000,7.768012 137.517395,5.309827 130.715225,5.141844 
	C109.324715,4.613595 87.902802,4.575871 66.515381,5.162560 
	C59.772861,5.347517 53.100731,8.098448 46.133839,9.635627 
	C46.133839,9.635627 45.963928,9.839613 45.284985,9.857222 
	C44.131390,10.511337 42.977798,11.165453 41.932789,11.891258 
	C41.932789,11.891258 41.882629,11.771199 41.267387,11.785875 
	C40.809612,12.160763 40.351837,12.535651 39.966454,12.969891 
	C39.966454,12.969891 39.951740,12.877441 39.341869,12.874832 
	C38.895489,13.251603 38.449112,13.628374 38.000000,14.000038 
	C38.000000,14.000038 38.005074,14.003932 37.370197,14.027536 
	C36.548412,14.658281 35.726627,15.289025 34.974274,15.987372 
	C34.974274,15.987372 34.948353,15.893996 34.390648,15.931195 
	C34.169697,16.210688 33.948746,16.490179 33.872398,16.852087 
	C33.872398,16.852087 33.779770,16.713802 33.258709,16.818541 
	C33.050762,17.089798 32.842815,17.361055 32.564793,17.743971 
	C32.564793,17.743971 32.594948,17.615599 32.006886,17.773882 
	C31.282574,18.465767 30.558262,19.157650 29.938910,19.947926 
	C29.938910,19.947926 29.883192,19.815285 29.343872,19.943344 
	C29.161034,20.250559 28.978197,20.557775 28.889875,20.889832 
	C28.889875,20.889832 28.867998,20.794584 28.329693,20.911386 
	C28.129753,21.203453 27.929813,21.495520 27.860559,21.854742 
	C27.860559,21.854742 27.786282,21.727968 27.263962,21.880917 
	C27.083134,22.182364 26.902304,22.483809 26.847668,22.845144 
	C26.847668,22.845144 26.780615,22.722609 26.259405,22.868526 
	C26.073503,23.164278 25.887600,23.460028 25.842340,23.856495 
	C25.842340,23.856495 25.759356,23.704712 25.222792,23.896641 
	C25.043879,24.223646 24.864967,24.550652 24.106430,25.182531 
	C22.041235,28.068243 19.976040,30.953955 17.352467,34.245907 
	C16.521955,36.144024 15.691444,38.042141 14.961323,39.961079 
	C14.961323,39.961079 14.894626,39.883217 14.368681,40.235126 
	C14.212703,40.834454 14.056726,41.433777 13.701931,42.178925 
	C13.701931,42.178925 13.736703,42.423019 13.175071,42.944759 
	C12.108436,46.595024 10.187578,50.227905 10.112906,53.898354 
	C9.603795,78.923500 9.483001,103.956543 9.140676,129.651260 
	C9.225934,130.086761 9.311193,130.522278 9.218388,131.699539 
	C9.732730,133.661682 10.247071,135.623840 10.623102,138.067017 
	C10.743320,138.372925 10.863537,138.678833 10.888197,139.763275 
	C11.835673,142.368576 12.783149,144.973892 13.690569,147.822861 
	C13.690569,147.822861 13.885268,147.974731 13.870090,148.610870 
	C14.213484,149.111618 14.556879,149.612381 14.964879,150.035599 
	C14.964879,150.035599 14.866420,150.057724 14.861198,150.737991 
	C15.543426,151.861328 16.225653,152.984650 16.967567,154.035217 
	C16.967567,154.035217 16.874477,154.049026 16.882561,154.659210 
	C17.247316,155.118591 17.612072,155.577957 18.004255,156.004944 
	C18.004255,156.004944 17.964121,156.017471 18.003946,156.672272 
	C18.922274,157.857712 19.840601,159.043137 20.936104,160.068588 
	C20.936104,160.068588 20.730358,160.189651 20.811092,160.718750 
	C21.077415,160.936356 21.343737,161.153946 21.686291,161.010788 
	C21.686291,161.010788 21.573046,161.361755 21.721861,161.920685 
	C22.140659,162.292374 22.559458,162.664062 23.002924,163.001816 
	C23.002924,163.001816 22.962769,163.013596 23.035629,163.556534 
	C23.320688,163.760254 23.605745,163.963974 23.930927,164.056335 
	C23.930927,164.056335 23.834377,164.124786 23.966780,164.721542 
	C24.569653,165.232315 25.172525,165.743103 25.906271,166.136368 
	C25.906271,166.136368 25.740553,166.195297 25.893595,166.724945 
	C26.203964,166.899246 26.514332,167.073547 26.857098,167.143799 
	C26.857098,167.143799 26.754324,167.180054 26.898060,167.712372 
z"/>
<path fill="#FE6A03" opacity="1.000000" stroke="none" 
	d="
M9.396448,130.957779 
	C9.311193,130.522278 9.225934,130.086761 9.435524,128.989746 
	C9.819105,112.263649 9.704724,96.194366 10.075887,80.136292 
	C10.284801,71.097755 11.200485,62.069473 11.990601,53.053471 
	C12.303201,49.486374 13.139082,45.965137 13.736703,42.423019 
	C13.736703,42.423019 13.701931,42.178925 14.083117,41.941444 
	C14.607744,41.097046 14.751184,40.490131 14.894625,39.883217 
	C14.894626,39.883217 14.961323,39.961079 15.255761,39.827171 
	C16.337082,37.742069 17.123962,35.790867 17.910845,33.839668 
	C19.976040,30.953955 22.041235,28.068243 24.686609,24.958225 
	C25.430977,24.390848 25.595165,24.047779 25.759356,23.704712 
	C25.759356,23.704712 25.842340,23.856495 26.060268,23.775127 
	C26.445667,23.370043 26.613142,23.046326 26.780615,22.722609 
	C26.780615,22.722609 26.847668,22.845144 27.070047,22.773544 
	C27.457045,22.377287 27.621662,22.052628 27.786282,21.727968 
	C27.786282,21.727968 27.860559,21.854742 28.078606,21.786819 
	C28.487103,21.410795 28.677551,21.102690 28.867998,20.794584 
	C28.867998,20.794584 28.889875,20.889832 29.118326,20.820911 
	C29.525581,20.439754 29.704386,20.127520 29.883190,19.815285 
	C29.883192,19.815285 29.938910,19.947926 30.273388,19.947941 
	C31.270229,19.170504 31.932589,18.393051 32.594948,17.615599 
	C32.594948,17.615599 32.564793,17.743971 32.895088,17.704660 
	C33.410179,17.348167 33.594975,17.030985 33.779770,16.713802 
	C33.779770,16.713802 33.872398,16.852087 34.079857,16.796257 
	C34.507664,16.458286 34.728008,16.176142 34.948353,15.893997 
	C34.948353,15.893996 34.974274,15.987372 35.300476,15.993008 
	C36.419479,15.333739 37.212276,14.668836 38.005074,14.003932 
	C38.005074,14.003932 38.000000,14.000038 38.311531,14.003840 
	C39.065952,13.630908 39.508846,13.254174 39.951740,12.877441 
	C39.951740,12.877441 39.966454,12.969891 40.255257,12.965134 
	C40.990246,12.563983 41.436436,12.167590 41.882629,11.771198 
	C41.882629,11.771199 41.932789,11.891258 42.272911,11.922079 
	C43.730003,11.248471 44.846966,10.544043 45.963928,9.839614 
	C45.963928,9.839613 46.133839,9.635627 46.699028,9.750243 
	C54.550854,8.575967 61.813892,6.362272 69.128647,6.175621 
	C89.202240,5.663401 109.297615,5.980034 129.384171,6.038024 
	C131.508392,6.044157 133.648636,6.412163 135.751434,6.782633 
	C141.030685,7.712726 146.292740,8.740465 151.561691,9.729050 
	C151.561691,9.729051 151.819733,9.683931 152.061707,10.071402 
	C152.912613,10.599151 153.521530,10.739430 154.130463,10.879711 
	C154.130463,10.879711 154.047470,10.948857 154.170197,11.233673 
	C156.602219,12.601971 158.911499,13.685451 161.220779,14.768930 
	C161.220779,14.768930 161.105652,14.856329 161.221466,15.101238 
	C161.920395,15.541410 162.503510,15.736673 163.086639,15.931934 
	C163.086639,15.931934 163.019653,15.989875 163.138367,16.204292 
	C163.591644,16.537350 163.926208,16.655991 164.260788,16.774632 
	C164.260788,16.774632 164.139023,16.847120 164.229065,17.069355 
	C164.666046,17.399343 165.012970,17.507095 165.359894,17.614847 
	C165.359894,17.614849 165.009521,17.811108 165.188080,18.023964 
	C165.926208,18.481764 166.485809,18.726709 167.045395,18.971657 
	C167.045395,18.971659 167.002975,19.002249 167.111969,19.224297 
	C167.530106,19.600052 167.839249,19.753757 168.148392,19.907465 
	C168.148392,19.907467 168.063568,19.935118 168.170990,20.167999 
	C168.621658,20.561491 168.964890,20.722103 169.308121,20.882713 
	C169.593597,20.897200 169.825073,21.016479 170.127319,21.728666 
	C170.584183,22.422094 170.916306,22.627407 171.248413,22.832722 
	C171.248413,22.832724 171.139450,22.857809 171.211487,23.087044 
	C171.610703,23.475605 171.937897,23.634930 172.265076,23.794254 
	C172.265076,23.794252 172.146179,23.856359 172.211685,24.078812 
	C172.589279,24.486914 172.901382,24.672565 173.213470,24.858219 
	C173.213470,24.858221 173.115128,24.886410 173.180008,25.113846 
	C173.549484,25.529793 173.854065,25.718306 174.158661,25.906816 
	C174.158661,25.906816 174.068924,25.934275 174.137939,26.151638 
	C174.487320,26.573212 174.767685,26.777424 175.048050,26.981634 
	C175.048050,26.981632 174.997299,26.996084 175.019714,27.302296 
	C175.501785,27.955059 175.961456,28.301611 176.421127,28.648163 
	C176.421127,28.648163 176.270233,28.972803 176.305389,29.097385 
	C176.655777,29.410437 176.970993,29.598904 177.286224,29.787373 
	C177.286224,29.787371 177.152969,29.865963 177.201263,30.078884 
	C177.531158,30.512732 177.812759,30.733654 178.094360,30.954578 
	C178.094360,30.954580 178.009079,30.980875 178.007080,31.326193 
	C179.722626,34.422821 181.440155,37.174126 183.157700,39.925430 
	C183.157700,39.925430 183.050232,39.953201 183.046066,40.237106 
	C183.398880,41.019608 183.755875,41.518196 184.112854,42.016785 
	C184.112854,42.016785 184.315887,42.178898 184.211609,42.758865 
	C185.537521,48.239380 186.967712,53.139931 188.397919,58.040482 
	C188.523514,58.477276 188.649124,58.914066 188.498520,60.027832 
	C188.149185,81.694870 188.096909,102.685051 187.973297,123.674820 
	C187.959732,125.977249 187.664139,128.298920 187.278183,130.574158 
	C186.284775,136.430359 185.167145,142.265472 184.099152,148.109024 
	C184.099152,148.109024 184.026855,148.001007 183.709167,148.065216 
	C182.627106,150.124603 181.862701,152.119812 181.098312,154.115005 
	C181.098312,154.115005 181.041092,154.040146 180.804428,154.174713 
	C180.380234,154.875275 180.192703,155.441238 180.005157,156.007217 
	C180.005157,156.007217 180.000000,156.000000 179.648956,156.044128 
	C178.893860,157.092850 178.489822,158.097443 178.085785,159.102036 
	C178.085785,159.102036 178.019043,159.029465 177.806641,159.145874 
	C177.475586,159.599060 177.356903,159.935852 177.238235,160.272644 
	C177.238235,160.272644 177.153137,160.137558 176.932648,160.228256 
	C176.598831,160.666016 176.485504,161.013092 176.372177,161.360153 
	C176.372177,161.360153 176.067108,160.978729 175.921005,161.168182 
	C175.670837,161.706970 175.566772,162.056305 175.462708,162.405655 
	C175.462723,162.405655 175.428116,162.031631 175.113007,162.209595 
	C174.580078,162.979279 174.362259,163.570969 174.144424,164.162674 
	C174.144424,164.162674 174.058563,164.059723 173.846832,164.152100 
	C173.469162,164.563187 173.303223,164.881897 173.137299,165.200607 
	C173.137299,165.200607 173.102829,165.105972 172.877594,165.175293 
	C172.438599,165.537964 172.224823,165.831284 172.011063,166.124619 
	C171.488617,166.606644 170.966171,167.088654 170.028275,167.920654 
	C169.451538,168.617065 169.290253,168.963501 169.128967,169.309937 
	C168.630875,169.832626 168.132767,170.355316 167.116791,171.011719 
	C166.388824,171.407883 166.178711,171.670303 165.968597,171.932724 
	C165.968597,171.932724 165.990707,171.999496 165.608215,171.977509 
	C164.502487,172.667130 163.779251,173.378723 163.056000,174.090332 
	C163.056000,174.090317 163.009338,174.008041 162.680695,174.007553 
	C161.599854,174.711914 160.847672,175.416763 160.095490,176.121613 
	C160.095505,176.121628 159.990509,176.022842 159.667068,176.019501 
	C157.585419,177.061096 155.827194,178.106033 154.068985,179.150986 
	C154.068985,179.150986 154.043869,179.046265 153.758331,179.041718 
	C152.973328,179.394821 152.473846,179.752487 151.974350,180.110138 
	C151.974350,180.110138 151.817291,180.307343 151.255203,180.206207 
	C140.821228,182.144958 131.057327,184.388397 120.784775,184.121078 
	C103.968880,183.683533 87.133270,183.977875 70.306198,184.032883 
	C68.538383,184.038666 66.772095,184.509949 65.005096,184.765274 
	C64.561913,184.783661 64.118729,184.802032 63.238258,184.371597 
	C57.174644,182.635254 51.548317,181.347733 45.921989,180.060211 
	C45.921989,180.060211 45.983910,180.011276 45.828491,179.768692 
	C45.079620,179.381653 44.486168,179.237213 43.892715,179.092773 
	C43.892715,179.092758 43.966221,179.031357 43.830814,178.743927 
	C42.428780,178.000214 41.162148,177.543930 39.895515,177.087646 
	C39.895515,177.087646 39.965176,177.030045 39.824165,176.793472 
	C39.109901,176.378922 38.536652,176.200943 37.963402,176.022980 
	C37.963406,176.022964 37.994934,175.995728 37.952061,175.660736 
	C36.920334,174.897293 35.931480,174.468842 34.942619,174.040375 
	C34.942619,174.040390 34.992283,173.999176 34.873241,173.777969 
	C34.421165,173.438660 34.088131,173.320541 33.755096,173.202438 
	C33.755096,173.202438 33.861916,173.152252 33.775391,172.923325 
	C33.340225,172.588654 32.991585,172.482910 32.642944,172.377167 
	C32.642944,172.377167 32.592083,172.157761 32.679245,171.892090 
	C31.790380,171.132721 30.814356,170.638992 29.838329,170.145264 
	C29.838327,170.145279 29.937273,170.057541 29.841274,169.849091 
	C29.427402,169.474823 29.109526,169.309006 28.791649,169.143204 
	C28.791649,169.143204 28.886639,169.116684 28.807594,168.887268 
	C28.400969,168.502914 28.073387,168.347977 27.745804,168.193054 
	C27.745800,168.193054 27.854422,168.148483 27.788399,167.918823 
	C27.399691,167.519455 27.077005,167.349762 26.754322,167.180054 
	C26.754324,167.180054 26.857098,167.143799 26.789104,166.912201 
	C26.394258,166.518829 26.067406,166.357071 25.740555,166.195297 
	C25.740553,166.195297 25.906271,166.136368 25.877617,165.841370 
	C25.177437,165.072495 24.505909,164.598633 23.834379,164.124786 
	C23.834377,164.124786 23.930927,164.056335 23.861897,163.847900 
	C23.516167,163.430862 23.239468,163.222229 22.962769,163.013596 
	C22.962769,163.013596 23.002924,163.001816 22.984966,162.691254 
	C22.502354,162.041061 22.037701,161.701401 21.573048,161.361755 
	C21.573046,161.361755 21.686291,161.010788 21.673588,160.896362 
	C21.350710,160.584503 21.040535,160.387070 20.730358,160.189651 
	C20.730358,160.189651 20.936104,160.068588 20.926952,159.770737 
	C19.933241,158.321075 18.948681,157.169281 17.964121,156.017471 
	C17.964121,156.017471 18.004255,156.004944 17.999153,155.706940 
	C17.620859,154.955627 17.247669,154.502335 16.874477,154.049026 
	C16.874477,154.049026 16.967567,154.035217 16.984268,153.710297 
	C16.289454,152.276154 15.577938,151.166931 14.866421,150.057724 
	C14.866420,150.057724 14.964879,150.035599 14.965168,149.748688 
	C14.605395,148.966110 14.245333,148.470413 13.885269,147.974731 
	C13.885268,147.974731 13.690569,147.822861 13.790322,147.274872 
	C12.921303,144.146179 11.952529,141.565460 10.983755,138.984741 
	C10.863537,138.678833 10.743320,138.372925 10.772679,137.387695 
	C10.413653,134.791519 9.905050,132.874649 9.396448,130.957779 
M99.424591,74.092690 
	C98.099052,74.210587 96.751762,74.215179 95.451515,74.464828 
	C87.189087,76.051201 81.601440,80.908653 79.098190,88.859756 
	C76.510490,97.079132 78.592316,104.441338 84.869911,110.274857 
	C90.996574,115.968132 98.293396,117.381805 106.218437,114.575638 
	C115.066528,111.442604 120.812592,102.200294 119.837967,92.951584 
	C118.778091,82.893951 111.540176,75.918732 99.424591,74.092690 
M132.683411,123.795044 
	C130.324921,121.068024 128.242966,117.997894 125.480797,115.771751 
	C124.263680,114.790825 121.664261,115.525047 119.692413,115.480576 
	C119.717216,117.578857 119.161896,119.926628 119.927284,121.706421 
	C120.718842,123.547043 122.749702,124.881836 124.314217,126.357567 
	C128.197830,130.020798 130.394531,129.522720 132.683411,123.795044 
M70.322426,117.821579 
	C69.252701,118.854652 68.158760,119.864006 67.118416,120.925865 
	C65.094254,122.991905 64.366364,125.746521 66.856522,127.290344 
	C68.333954,128.206314 71.259529,127.381401 73.272614,126.634659 
	C74.673996,126.114822 75.630119,124.396866 76.787437,123.216377 
	C78.844536,121.118088 80.931145,118.724472 78.371506,115.966995 
	C75.534294,112.910507 73.033714,115.074295 70.322426,117.821579 
M129.283356,70.763657 
	C129.948364,70.031319 131.045532,69.375244 131.190933,68.551224 
	C131.522400,66.672699 131.387268,64.711853 131.441727,62.784462 
	C129.361816,62.795776 127.237343,62.561417 125.221657,62.926952 
	C124.280716,63.097588 123.471764,64.364136 122.739296,65.247032 
	C120.575157,67.855591 115.940514,70.294495 119.804161,74.148964 
	C123.639511,77.975197 126.084328,73.330917 129.283356,70.763657 
M78.203545,68.296120 
	C76.330849,66.409981 74.718513,64.067421 72.493805,62.798351 
	C71.013832,61.954113 67.979248,61.889919 66.897316,62.867523 
	C65.913612,63.756378 65.981583,66.848686 66.753799,68.381187 
	C67.745079,70.348419 69.673553,72.133553 71.627121,73.239815 
	C73.393394,74.240005 75.736343,74.221855 77.824997,74.652763 
	C78.102539,72.713097 78.380081,70.773430 78.203545,68.296120 
M94.876694,133.398132 
	C94.902016,136.684952 94.257759,140.804764 99.164024,140.693848 
	C103.639824,140.592651 103.138641,136.689743 103.146019,133.541916 
	C103.146797,133.210754 103.161263,132.878418 103.139313,132.548630 
	C102.910614,129.113403 104.331871,124.175056 98.775192,124.343369 
	C93.697365,124.497169 95.059746,129.199066 94.876694,133.398132 
M144.872116,95.404045 
	C144.590775,94.472420 144.542709,93.359238 143.985031,92.642677 
	C142.201904,90.351585 131.078415,89.732971 129.653839,92.167747 
	C128.786697,93.649803 128.878983,96.804352 129.921799,98.063263 
	C132.145859,100.748192 142.213486,99.147034 144.872116,95.404045 
M57.079140,90.914703 
	C55.791279,92.519157 54.503418,94.123611 53.215561,95.728073 
	C54.983570,96.863571 56.623245,98.535736 58.552471,98.997078 
	C60.899574,99.558365 63.617962,99.560043 65.930817,98.919472 
	C67.451111,98.498413 69.719849,96.317505 69.546318,95.275635 
	C69.277664,93.662682 67.440735,91.557190 65.850609,91.092949 
	C63.403095,90.378395 60.601364,90.877113 57.079140,90.914703 
M103.094353,53.073685 
	C101.494118,51.780231 99.893875,50.486778 98.293640,49.193329 
	C97.147911,50.959969 95.462280,52.595921 94.994904,54.526760 
	C94.427269,56.871834 94.423126,59.594749 95.066383,61.906185 
	C95.491821,63.434891 97.665329,65.704117 98.732933,65.539917 
	C100.339699,65.292770 102.459641,63.438618 102.923088,61.848446 
	C103.636414,59.400902 103.130699,56.598076 103.094353,53.073685 
z"/>
<path fill="#EA7625" opacity="1.000000" stroke="none" 
	d="
M151.298096,9.453631 
	C146.292740,8.740465 141.030685,7.712726 135.751434,6.782633 
	C133.648636,6.412163 131.508392,6.044157 129.384171,6.038024 
	C109.297615,5.980034 89.202240,5.663401 69.128647,6.175621 
	C61.813892,6.362272 54.550854,8.575967 46.830303,9.769928 
	C53.100731,8.098448 59.772861,5.347517 66.515381,5.162560 
	C87.902802,4.575871 109.324715,4.613595 130.715225,5.141844 
	C137.517395,5.309827 144.263000,7.768012 151.298096,9.453631 
z"/>
<path fill="#EA7625" opacity="1.000000" stroke="none" 
	d="
M65.461166,184.881470 
	C66.772095,184.509949 68.538383,184.038666 70.306198,184.032883 
	C87.133270,183.977875 103.968880,183.683533 120.784775,184.121078 
	C131.057327,184.388397 140.821228,182.144958 151.131516,180.181961 
	C144.848740,181.851440 138.159119,184.637924 131.400543,184.816650 
	C109.586433,185.393494 87.746948,185.010620 65.461166,184.881470 
z"/>
<path fill="#EA7625" opacity="1.000000" stroke="none" 
	d="
M184.383575,147.886017 
	C185.167145,142.265472 186.284775,136.430359 187.278183,130.574158 
	C187.664139,128.298920 187.959732,125.977249 187.973297,123.674820 
	C188.096909,102.685051 188.149185,81.694870 188.456482,60.370079 
	C188.816971,76.479652 189.200012,92.927452 188.975555,109.366966 
	C188.835617,119.616455 187.907288,129.864349 187.041977,140.088348 
	C186.824173,142.661774 185.489456,145.140656 184.383575,147.886017 
z"/>
<path fill="#EA7625" opacity="1.000000" stroke="none" 
	d="
M13.455887,42.683891 
	C13.139082,45.965137 12.303201,49.486374 11.990601,53.053471 
	C11.200485,62.069473 10.284801,71.097755 10.075887,80.136292 
	C9.704724,96.194366 9.819105,112.263649 9.483644,128.657654 
	C9.483001,103.956543 9.603795,78.923500 10.112906,53.898354 
	C10.187578,50.227905 12.108436,46.595024 13.455887,42.683891 
z"/>
<path fill="#EA7625" opacity="1.000000" stroke="none" 
	d="
M46.138550,180.348953 
	C51.548317,181.347733 57.174644,182.635254 62.920982,184.265610 
	C57.479031,183.284851 51.917072,181.961273 46.138550,180.348953 
z"/>
<path fill="#EA7625" opacity="1.000000" stroke="none" 
	d="
M188.503983,57.666180 
	C186.967712,53.139931 185.537521,48.239380 184.188599,42.886711 
	C185.716614,47.387024 187.163330,52.339451 188.503983,57.666180 
z"/>
<path fill="#EA7625" opacity="1.000000" stroke="none" 
	d="
M183.151505,39.563408 
	C181.440155,37.174126 179.722626,34.422821 178.036453,31.292595 
	C179.760315,33.676247 181.452805,36.438816 183.151505,39.563408 
z"/>
<path fill="#EA7625" opacity="1.000000" stroke="none" 
	d="
M161.057953,14.468811 
	C158.911499,13.685451 156.602219,12.601971 154.181961,11.180958 
	C156.345688,11.951848 158.620407,13.060270 161.057953,14.468811 
z"/>
<path fill="#EA7625" opacity="1.000000" stroke="none" 
	d="
M10.935976,139.374008 
	C11.952529,141.565460 12.921303,144.146179 13.810350,147.153046 
	C12.783149,144.973892 11.835673,142.368576 10.935976,139.374008 
z"/>
<path fill="#EA7625" opacity="1.000000" stroke="none" 
	d="
M181.389740,153.935989 
	C181.862701,152.119812 182.627106,150.124603 183.758484,148.107574 
	C183.310699,149.976151 182.495926,151.866562 181.389740,153.935989 
z"/>
<path fill="#EA7625" opacity="1.000000" stroke="none" 
	d="
M154.421570,179.147858 
	C155.827194,178.106033 157.585419,177.061096 159.725296,176.061188 
	C158.329376,177.119080 156.551773,178.131912 154.421570,179.147858 
z"/>
<path fill="#EA7625" opacity="1.000000" stroke="none" 
	d="
M17.631657,34.042786 
	C17.123962,35.790867 16.337082,37.742069 15.205566,39.816765 
	C15.691444,38.042141 16.521955,36.144024 17.631657,34.042786 
z"/>
<path fill="#EA7625" opacity="1.000000" stroke="none" 
	d="
M9.307417,131.328659 
	C9.905050,132.874649 10.413653,134.791519 10.841835,137.147186 
	C10.247071,135.623840 9.732730,133.661682 9.307417,131.328659 
z"/>
<path fill="#EA7625" opacity="1.000000" stroke="none" 
	d="
M17.984034,156.344879 
	C18.948681,157.169281 19.933241,158.321075 20.838364,159.850739 
	C19.840601,159.043137 18.922274,157.857712 17.984034,156.344879 
z"/>
<path fill="#EA7625" opacity="1.000000" stroke="none" 
	d="
M40.075233,177.372131 
	C41.162148,177.543930 42.428780,178.000214 43.822495,178.791092 
	C42.718040,178.635971 41.486496,178.146286 40.075233,177.372131 
z"/>
<path fill="#EA7625" opacity="1.000000" stroke="none" 
	d="
M14.863811,150.397858 
	C15.577938,151.166931 16.289454,152.276154 16.954424,153.746674 
	C16.225653,152.984650 15.543426,151.861328 14.863811,150.397858 
z"/>
<path fill="#EA7625" opacity="1.000000" stroke="none" 
	d="
M45.624458,9.848418 
	C44.846966,10.544043 43.730003,11.248471 42.218620,11.886234 
	C42.977798,11.165453 44.131390,10.511337 45.624458,9.848418 
z"/>
<path fill="#EA7625" opacity="1.000000" stroke="none" 
	d="
M37.687637,14.015734 
	C37.212276,14.668836 36.419479,15.333739 35.265762,15.959206 
	C35.726627,15.289025 36.548412,14.658281 37.687637,14.015734 
z"/>
<path fill="#EA7625" opacity="1.000000" stroke="none" 
	d="
M178.360596,158.943726 
	C178.489822,158.097443 178.893860,157.092850 179.652557,156.046158 
	C179.549957,156.931168 179.092682,157.858292 178.360596,158.943726 
z"/>
<path fill="#EA7625" opacity="1.000000" stroke="none" 
	d="
M29.960361,170.429169 
	C30.814356,170.638992 31.790380,171.132721 32.683334,172.004639 
	C31.760975,171.826279 30.921682,171.269684 29.960361,170.429169 
z"/>
<path fill="#EA7625" opacity="1.000000" stroke="none" 
	d="
M163.368301,174.053421 
	C163.779251,173.378723 164.502487,172.667130 165.580429,171.955948 
	C165.183624,172.643082 164.432114,173.329803 163.368301,174.053421 
z"/>
<path fill="#EA7625" opacity="1.000000" stroke="none" 
	d="
M32.300919,17.694740 
	C31.932589,18.393051 31.270229,19.170504 30.220909,19.898745 
	C30.558262,19.157650 31.282574,18.465767 32.300919,17.694740 
z"/>
<path fill="#EA7625" opacity="1.000000" stroke="none" 
	d="
M35.082108,174.327026 
	C35.931480,174.468842 36.920334,174.897293 37.946182,175.680496 
	C37.062653,175.561386 36.142124,175.087540 35.082108,174.327026 
z"/>
<path fill="#EA7625" opacity="1.000000" stroke="none" 
	d="
M160.409302,176.088440 
	C160.847672,175.416763 161.599854,174.711914 162.718445,174.036041 
	C162.297607,174.728409 161.510345,175.391830 160.409302,176.088440 
z"/>
<path fill="#EA7625" opacity="1.000000" stroke="none" 
	d="
M23.900581,164.423157 
	C24.505909,164.598633 25.177437,165.072495 25.812181,165.900116 
	C25.172525,165.743103 24.569653,165.232315 23.900581,164.423157 
z"/>
<path fill="#EA7625" opacity="1.000000" stroke="none" 
	d="
M180.274994,155.864899 
	C180.192703,155.441238 180.380234,154.875275 180.851196,154.180481 
	C180.938019,154.608627 180.741425,155.165619 180.274994,155.864899 
z"/>
<path fill="#EA7625" opacity="1.000000" stroke="none" 
	d="
M153.952606,10.618484 
	C153.521530,10.739430 152.912613,10.599151 152.142792,10.174274 
	C152.579498,10.045538 153.177124,10.201399 153.952606,10.618484 
z"/>
<path fill="#EA7625" opacity="1.000000" stroke="none" 
	d="
M166.934616,18.700901 
	C166.485809,18.726709 165.926208,18.481764 165.352737,17.909035 
	C165.833847,17.864218 166.328842,18.147182 166.934616,18.700901 
z"/>
<path fill="#EA7625" opacity="1.000000" stroke="none" 
	d="
M13.877680,148.292801 
	C14.245333,148.470413 14.605395,148.966110 14.932866,149.787460 
	C14.556879,149.612381 14.213484,149.111618 13.877680,148.292801 
z"/>
<path fill="#EA7625" opacity="1.000000" stroke="none" 
	d="
M16.878519,154.354126 
	C17.247669,154.502335 17.620859,154.955627 17.985439,155.723145 
	C17.612072,155.577957 17.247316,155.118591 16.878519,154.354126 
z"/>
<path fill="#EA7625" opacity="1.000000" stroke="none" 
	d="
M152.292572,180.121704 
	C152.473846,179.752487 152.973328,179.394821 153.799622,179.076279 
	C153.621231,179.454681 153.116013,179.793961 152.292572,180.121704 
z"/>
<path fill="#EA7625" opacity="1.000000" stroke="none" 
	d="
M44.058563,179.354630 
	C44.486168,179.237213 45.079620,179.381653 45.822281,179.807663 
	C45.389130,179.931641 44.806770,179.774063 44.058563,179.354630 
z"/>
<path fill="#EA7625" opacity="1.000000" stroke="none" 
	d="
M21.647453,161.641220 
	C22.037701,161.701401 22.502354,162.041061 22.972633,162.708221 
	C22.559458,162.664062 22.140659,162.292374 21.647453,161.641220 
z"/>
<path fill="#EA7625" opacity="1.000000" stroke="none" 
	d="
M174.423401,164.059509 
	C174.362259,163.570969 174.580078,162.979279 175.142242,162.396576 
	C175.225189,162.922501 174.963791,163.439423 174.423401,164.059509 
z"/>
<path fill="#EA7625" opacity="1.000000" stroke="none" 
	d="
M38.117630,176.286407 
	C38.536652,176.200943 39.109901,176.378922 39.819855,176.838470 
	C39.394985,176.929962 38.833420,176.739914 38.117630,176.286407 
z"/>
<path fill="#EA7625" opacity="1.000000" stroke="none" 
	d="
M39.646805,12.876137 
	C39.508846,13.254174 39.065952,13.630908 38.312897,14.006393 
	C38.449112,13.628374 38.895489,13.251603 39.646805,12.876137 
z"/>
<path fill="#EA7625" opacity="1.000000" stroke="none" 
	d="
M162.940842,15.668045 
	C162.503510,15.736673 161.920395,15.541410 161.247070,15.033657 
	C161.702942,14.948830 162.248993,15.176493 162.940842,15.668045 
z"/>
<path fill="#EA7625" opacity="1.000000" stroke="none" 
	d="
M41.575008,11.778536 
	C41.436436,12.167590 40.990246,12.563983 40.219059,12.935457 
	C40.351837,12.535651 40.809612,12.160763 41.575008,11.778536 
z"/>
<path fill="#EA7625" opacity="1.000000" stroke="none" 
	d="
M184.124374,41.699432 
	C183.755875,41.518196 183.398880,41.019608 183.081665,40.194534 
	C183.459579,40.372730 183.797729,40.877407 184.124374,41.699432 
z"/>
<path fill="#EA7625" opacity="1.000000" stroke="none" 
	d="
M14.631653,40.059174 
	C14.751184,40.490131 14.607744,41.097046 14.182526,41.868530 
	C14.056726,41.433777 14.212703,40.834454 14.631653,40.059174 
z"/>
<path fill="#EA7625" opacity="1.000000" stroke="none" 
	d="
M176.353210,28.365898 
	C175.961456,28.301611 175.501785,27.955059 175.035339,27.281029 
	C175.447495,27.330244 175.866394,27.706940 176.353210,28.365898 
z"/>
<path fill="#EA7625" opacity="1.000000" stroke="none" 
	d="
M169.422424,169.202332 
	C169.290253,168.963501 169.451538,168.617065 169.880341,168.144669 
	C170.003876,168.377380 169.859894,168.736053 169.422424,169.202332 
z"/>
<path fill="#EA7625" opacity="1.000000" stroke="none" 
	d="
M168.066925,19.645536 
	C167.839249,19.753757 167.530106,19.600052 167.119354,19.199230 
	C167.340302,19.095945 167.662888,19.239779 168.066925,19.645536 
z"/>
<path fill="#EA7625" opacity="1.000000" stroke="none" 
	d="
M28.869551,169.409760 
	C29.109526,169.309006 29.427402,169.474823 29.818579,169.911194 
	C29.577070,170.013260 29.262260,169.844772 28.869551,169.409760 
z"/>
<path fill="#EA7625" opacity="1.000000" stroke="none" 
	d="
M174.097046,25.638901 
	C173.854065,25.718306 173.549484,25.529793 173.195709,25.065163 
	C173.442841,24.983027 173.739151,25.177006 174.097046,25.638901 
z"/>
<path fill="#EA7625" opacity="1.000000" stroke="none" 
	d="
M166.234833,171.900452 
	C166.178711,171.670303 166.388824,171.407883 166.850861,171.086853 
	C166.902206,171.308228 166.701630,171.588196 166.234833,171.900452 
z"/>
<path fill="#EA7625" opacity="1.000000" stroke="none" 
	d="
M32.750404,172.623062 
	C32.991585,172.482910 33.340225,172.588654 33.756809,172.979340 
	C33.502453,173.132492 33.180157,173.000717 32.750404,172.623062 
z"/>
<path fill="#EA7625" opacity="1.000000" stroke="none" 
	d="
M173.152649,24.588930 
	C172.901382,24.672565 172.589279,24.486914 172.239807,24.017921 
	C172.498901,23.929602 172.795349,24.124622 173.152649,24.588930 
z"/>
<path fill="#EA7625" opacity="1.000000" stroke="none" 
	d="
M33.860893,173.457245 
	C34.088131,173.320541 34.421165,173.438660 34.865097,173.809204 
	C34.639561,173.945114 34.303123,173.828598 33.860893,173.457245 
z"/>
<path fill="#EA7625" opacity="1.000000" stroke="none" 
	d="
M25.491074,23.800676 
	C25.595165,24.047779 25.430977,24.390848 24.976421,24.805786 
	C24.864967,24.550652 25.043879,24.223646 25.491074,23.800676 
z"/>
<path fill="#EA7625" opacity="1.000000" stroke="none" 
	d="
M172.185577,23.531158 
	C171.937897,23.634930 171.610703,23.475605 171.228745,23.033867 
	C171.484680,22.923656 171.795380,23.095860 172.185577,23.531158 
z"/>
<path fill="#EA7625" opacity="1.000000" stroke="none" 
	d="
M26.520010,22.795567 
	C26.613142,23.046326 26.445667,23.370043 25.989944,23.724770 
	C25.887600,23.460028 26.073503,23.164278 26.520010,22.795567 
z"/>
<path fill="#EA7625" opacity="1.000000" stroke="none" 
	d="
M171.167877,22.551281 
	C170.916306,22.627407 170.584183,22.422094 170.202850,21.914116 
	C170.464859,21.830914 170.776093,22.050379 171.167877,22.551281 
z"/>
<path fill="#EA7625" opacity="1.000000" stroke="none" 
	d="
M27.525122,21.804443 
	C27.621662,22.052628 27.457045,22.377287 27.006950,22.743601 
	C26.902304,22.483809 27.083134,22.182364 27.525122,21.804443 
z"/>
<path fill="#EA7625" opacity="1.000000" stroke="none" 
	d="
M28.598846,20.852985 
	C28.677551,21.102690 28.487103,21.410795 28.013264,21.753242 
	C27.929813,21.495520 28.129753,21.203453 28.598846,20.852985 
z"/>
<path fill="#EA7625" opacity="1.000000" stroke="none" 
	d="
M169.197357,20.614529 
	C168.964890,20.722103 168.621658,20.561491 168.178223,20.123980 
	C168.414200,20.013500 168.750397,20.179920 169.197357,20.614529 
z"/>
<path fill="#EA7625" opacity="1.000000" stroke="none" 
	d="
M29.613531,19.879314 
	C29.704386,20.127520 29.525581,20.439754 29.071068,20.808491 
	C28.978197,20.557775 29.161034,20.250559 29.613531,19.879314 
z"/>
<path fill="#EA7625" opacity="1.000000" stroke="none" 
	d="
M177.239868,29.525005 
	C176.970993,29.598904 176.655777,29.410437 176.360138,28.926971 
	C176.650986,28.842196 176.922241,29.052418 177.239868,29.525005 
z"/>
<path fill="#EA7625" opacity="1.000000" stroke="none" 
	d="
M34.669502,15.912596 
	C34.728008,16.176142 34.507664,16.458286 34.007557,16.755051 
	C33.948746,16.490179 34.169697,16.210688 34.669502,15.912596 
z"/>
<path fill="#EA7625" opacity="1.000000" stroke="none" 
	d="
M164.154968,16.519234 
	C163.926208,16.655991 163.591644,16.537350 163.150589,16.161732 
	C163.379135,16.024446 163.714142,16.144144 164.154968,16.519234 
z"/>
<path fill="#EA7625" opacity="1.000000" stroke="none" 
	d="
M33.519241,16.766171 
	C33.594975,17.030985 33.410179,17.348167 32.930122,17.648830 
	C32.842815,17.361055 33.050762,17.089798 33.519241,16.766171 
z"/>
<path fill="#EA7625" opacity="1.000000" stroke="none" 
	d="
M165.254166,17.370878 
	C165.012970,17.507095 164.666046,17.399343 164.258606,17.004951 
	C164.514877,16.854511 164.831650,16.990711 165.254166,17.370878 
z"/>
<path fill="#EA7625" opacity="1.000000" stroke="none" 
	d="
M178.073700,30.678251 
	C177.812759,30.733654 177.531158,30.512732 177.239273,30.011517 
	C177.503677,29.954790 177.778351,30.178358 178.073700,30.678251 
z"/>
<path fill="#EA7625" opacity="1.000000" stroke="none" 
	d="
M177.496399,160.168747 
	C177.356903,159.935852 177.475586,159.599060 177.854370,159.158234 
	C177.994507,159.391068 177.874527,159.727966 177.496399,160.168747 
z"/>
<path fill="#EA7625" opacity="1.000000" stroke="none" 
	d="
M20.770725,160.454193 
	C21.040535,160.387070 21.350710,160.584503 21.635471,161.076736 
	C21.343737,161.153946 21.077415,160.936356 20.770725,160.454193 
z"/>
<path fill="#EA7625" opacity="1.000000" stroke="none" 
	d="
M176.618073,161.258759 
	C176.485504,161.013092 176.598831,160.666016 177.002441,160.266998 
	C177.149826,160.529144 177.006897,160.843246 176.618073,161.258759 
z"/>
<path fill="#EA7625" opacity="1.000000" stroke="none" 
	d="
M27.828686,168.455841 
	C28.073387,168.347977 28.400969,168.502914 28.795870,168.935150 
	C28.545979,169.047882 28.228771,168.883270 27.828686,168.455841 
z"/>
<path fill="#EA7625" opacity="1.000000" stroke="none" 
	d="
M175.697357,162.315628 
	C175.566772,162.056305 175.670837,161.706970 176.078278,161.356781 
	C176.231781,161.645813 176.081894,161.935715 175.697357,162.315628 
z"/>
<path fill="#EA7625" opacity="1.000000" stroke="none" 
	d="
M22.999199,163.285065 
	C23.239468,163.222229 23.516167,163.430862 23.841835,163.903580 
	C23.605745,163.963974 23.320688,163.760254 22.999199,163.285065 
z"/>
<path fill="#EA7625" opacity="1.000000" stroke="none" 
	d="
M175.007339,26.708839 
	C174.767685,26.777424 174.487320,26.573212 174.151367,26.106674 
	C174.386032,26.041582 174.676331,26.238813 175.007339,26.708839 
z"/>
<path fill="#EA7625" opacity="1.000000" stroke="none" 
	d="
M173.400421,165.119843 
	C173.303223,164.881897 173.469162,164.563187 173.908752,164.177750 
	C174.009460,164.420364 173.836502,164.729706 173.400421,165.119843 
z"/>
<path fill="#EA7625" opacity="1.000000" stroke="none" 
	d="
M172.313934,166.132751 
	C172.224823,165.831284 172.438599,165.537964 172.926514,165.187286 
	C173.006042,165.466919 172.811417,165.803894 172.313934,166.132751 
z"/>
<path fill="#EA7625" opacity="1.000000" stroke="none" 
	d="
M25.817074,166.460114 
	C26.067406,166.357071 26.394258,166.518829 26.772907,166.964233 
	C26.514332,167.073547 26.203964,166.899246 25.817074,166.460114 
z"/>
<path fill="#EA7625" opacity="1.000000" stroke="none" 
	d="
M26.826191,167.446213 
	C27.077005,167.349762 27.399691,167.519455 27.767708,167.973755 
	C27.508047,168.076370 27.203054,167.894379 26.826191,167.446213 
z"/>
<path fill="#FEF6EB" opacity="1.000000" stroke="none" 
	d="
M99.854012,74.099739 
	C111.540176,75.918732 118.778091,82.893951 119.837967,92.951584 
	C120.812592,102.200294 115.066528,111.442604 106.218437,114.575638 
	C98.293396,117.381805 90.996574,115.968132 84.869911,110.274857 
	C78.592316,104.441338 76.510490,97.079132 79.098190,88.859756 
	C81.601440,80.908653 87.189087,76.051201 95.451515,74.464828 
	C96.751762,74.215179 98.099052,74.210587 99.854012,74.099739 
M89.930206,86.469124 
	C85.458977,92.630028 85.650116,99.517792 90.417679,104.035439 
	C94.657028,108.052551 101.891586,108.455673 106.473656,104.930092 
	C112.042175,100.645508 113.012108,92.792732 108.666252,87.178360 
	C104.437119,81.714745 96.944458,81.196877 89.930206,86.469124 
z"/>
<path fill="#FEF6E9" opacity="1.000000" stroke="none" 
	d="
M132.708618,124.153275 
	C130.394531,129.522720 128.197830,130.020798 124.314217,126.357567 
	C122.749702,124.881836 120.718842,123.547043 119.927284,121.706421 
	C119.161896,119.926628 119.717216,117.578857 119.692413,115.480576 
	C121.664261,115.525047 124.263680,114.790825 125.480797,115.771751 
	C128.242966,117.997894 130.324921,121.068024 132.708618,124.153275 
z"/>
<path fill="#FEF7E9" opacity="1.000000" stroke="none" 
	d="
M70.574921,117.573021 
	C73.033714,115.074295 75.534294,112.910507 78.371506,115.966995 
	C80.931145,118.724472 78.844536,121.118088 76.787437,123.216377 
	C75.630119,124.396866 74.673996,126.114822 73.272614,126.634659 
	C71.259529,127.381401 68.333954,128.206314 66.856522,127.290344 
	C64.366364,125.746521 65.094254,122.991905 67.118416,120.925865 
	C68.158760,119.864006 69.252701,118.854652 70.574921,117.573021 
z"/>
<path fill="#FEF7E8" opacity="1.000000" stroke="none" 
	d="
M129.017487,71.003738 
	C126.084328,73.330917 123.639511,77.975197 119.804161,74.148964 
	C115.940514,70.294495 120.575157,67.855591 122.739296,65.247032 
	C123.471764,64.364136 124.280716,63.097588 125.221657,62.926952 
	C127.237343,62.561417 129.361816,62.795776 131.441727,62.784462 
	C131.387268,64.711853 131.522400,66.672699 131.190933,68.551224 
	C131.045532,69.375244 129.948364,70.031319 129.017487,71.003738 
z"/>
<path fill="#FDF8EB" opacity="1.000000" stroke="none" 
	d="
M78.430580,68.564941 
	C78.380081,70.773430 78.102539,72.713097 77.824997,74.652763 
	C75.736343,74.221855 73.393394,74.240005 71.627121,73.239815 
	C69.673553,72.133553 67.745079,70.348419 66.753799,68.381187 
	C65.981583,66.848686 65.913612,63.756378 66.897316,62.867523 
	C67.979248,61.889919 71.013832,61.954113 72.493805,62.798351 
	C74.718513,64.067421 76.330849,66.409981 78.430580,68.564941 
z"/>
<path fill="#FEF7E9" opacity="1.000000" stroke="none" 
	d="
M94.877167,132.949142 
	C95.059746,129.199066 93.697365,124.497169 98.775192,124.343369 
	C104.331871,124.175056 102.910614,129.113403 103.139313,132.548630 
	C103.161263,132.878418 103.146797,133.210754 103.146019,133.541916 
	C103.138641,136.689743 103.639824,140.592651 99.164024,140.693848 
	C94.257759,140.804764 94.902016,136.684952 94.877167,132.949142 
z"/>
<path fill="#FEF6E9" opacity="1.000000" stroke="none" 
	d="
M144.789169,95.802429 
	C142.213486,99.147034 132.145859,100.748192 129.921799,98.063263 
	C128.878983,96.804352 128.786697,93.649803 129.653839,92.167747 
	C131.078415,89.732971 142.201904,90.351585 143.985031,92.642677 
	C144.542709,93.359238 144.590775,94.472420 144.789169,95.802429 
z"/>
<path fill="#FEF6E9" opacity="1.000000" stroke="none" 
	d="
M57.514526,90.887894 
	C60.601364,90.877113 63.403095,90.378395 65.850609,91.092949 
	C67.440735,91.557190 69.277664,93.662682 69.546318,95.275635 
	C69.719849,96.317505 67.451111,98.498413 65.930817,98.919472 
	C63.617962,99.560043 60.899574,99.558365 58.552471,98.997078 
	C56.623245,98.535736 54.983570,96.863571 53.215561,95.728073 
	C54.503418,94.123611 55.791279,92.519157 57.514526,90.887894 
z"/>
<path fill="#FEF6E9" opacity="1.000000" stroke="none" 
	d="
M103.118256,53.509834 
	C103.130699,56.598076 103.636414,59.400902 102.923088,61.848446 
	C102.459641,63.438618 100.339699,65.292770 98.732933,65.539917 
	C97.665329,65.704117 95.491821,63.434891 95.066383,61.906185 
	C94.423126,59.594749 94.427269,56.871834 94.994904,54.526760 
	C95.462280,52.595921 97.147911,50.959969 98.293640,49.193329 
	C99.893875,50.486778 101.494118,51.780231 103.118256,53.509834 
z"/>
<path fill="#F96C0A" opacity="1.000000" stroke="none" 
	d="
M90.201019,86.194962 
	C96.944458,81.196877 104.437119,81.714745 108.666252,87.178360 
	C113.012108,92.792732 112.042175,100.645508 106.473656,104.930092 
	C101.891586,108.455673 94.657028,108.052551 90.417679,104.035439 
	C85.650116,99.517792 85.458977,92.630028 90.201019,86.194962 
z"/>
</svg>